#!OML:ASF F:\VICON\USERDATA\INSTALL\rory3\rory3.ASF
:FULLY-SPECIFIED
:DEGREES
63
root 1.01767 17.5898 -15.2119 10.758 -3.6111 -0.791691
lowerback 11.8757 0.0745461 -1.22226
upperback 1.13419 0.103563 2.87189
thorax -5.48207 0.109394 3.69575
lowerneck -16.0387 -3.12669 -9.47561
upperneck 26.3058 -3.10794 4.75796
head 11.4551 -1.76264 2.91156
rclavicle -2.38542e-015 -1.59028e-015
rhumerus -33.8969 -1.42595 -83.1783
rradius 56.1774
rwrist -3.00315
rhand -9.04018 15.4538
rfingers 7.12502
rthumb 16.9078 -13.8302
lclavicle -2.38542e-015 -1.59028e-015
lhumerus -34.6141 3.78546 86.5284
lradius 53.1418
lwrist 0.51048
lhand -17.5026 23.1958
lfingers 7.12502
lthumb 8.75036 52.9944
rfemur -21.9521 5.24393 23.0298
rtibia 30.3694
rfoot -14.5617 -6.28981
rtoes 4.51448
lfemur -23.4416 -0.614811 -21.2828
ltibia 31.2692
lfoot -15.9599 3.21499
ltoes 2.45144
64
root 1.02257 17.5735 -15.2325 11.1899 -3.55405 -0.799853
lowerback 12.1529 0.0944597 -1.14255
upperback 1.08984 0.138921 2.81724
thorax -5.68567 0.127598 3.59035
lowerneck -16.257 -3.19903 -9.37831
upperneck 26.298 -3.20221 4.71252
head 11.5011 -1.79792 2.86286
rclavicle 5.96354e-015 -7.15625e-015
rhumerus -33.6399 -1.37937 -83.2828
rradius 56.5319
rwrist -3.14502
rhand -9.15117 16.0733
rfingers 7.12502
rthumb 16.8009 -13.2198
lclavicle 5.96354e-015 -7.15625e-015
lhumerus -34.4745 3.39873 86.5764
lradius 53.6657
lwrist 0.750052
lhand -17.1093 26.0101
lfingers 7.12502
lthumb 9.12988 55.7925
rfemur -22.8622 5.1511 23.0018
rtibia 31.0277
rfoot -14.8273 -6.26088
rtoes 4.4116
lfemur -24.3139 -0.455295 -21.2967
ltibia 31.8886
lfoot -16.2356 3.00585
ltoes 2.46482
65
root 1.02805 17.5559 -15.2529 11.5891 -3.58027 -0.805996
lowerback 12.2941 0.112541 -1.09977
upperback 1.14082 0.165211 2.76949
thorax -5.71205 0.138638 3.51188
lowerneck -16.3528 -3.22788 -9.29871
upperneck 26.1596 -3.24012 4.67027
head 11.468 -1.80856 2.82496
rclavicle -1.19271e-014 5.56597e-015
rhumerus -33.4526 -1.19139 -83.4148
rradius 57.0664
rwrist -3.02253
rhand -9.61993 17.0261
rfingers 7.12502
rthumb 16.3496 -12.3047
lclavicle -1.19271e-014 5.56597e-015
lhumerus -34.3078 3.0539 86.5956
lradius 54.2305
lwrist 1.0232
lhand -17.0566 27.1413
lfingers 7.12502
lthumb 9.18077 56.9214
rfemur -23.7538 5.13939 22.9497
rtibia 31.7071
rfoot -15.0971 -6.25129
rtoes 4.75363
lfemur -25.1656 -0.281391 -21.3219
ltibia 32.4958
lfoot -16.4644 2.97909
ltoes 2.29103
66
root 1.02953 17.5355 -15.2781 11.8739 -3.55119 -0.651783
lowerback 12.649 0.118213 -1.29173
upperback 1.19629 0.14312 2.724
thorax -5.84992 0.133172 3.58015
lowerneck -16.5041 -3.22386 -9.21416
upperneck 26.0593 -3.22164 4.60511
head 11.4554 -1.79626 2.78654
rclavicle -9.74045e-015 -2.62396e-014
rhumerus -33.302 -0.890422 -83.5775
rradius 57.8779
rwrist -2.85921
rhand -9.97333 16.7584
rfingers 7.12502
rthumb 16.0093 -12.6001
lclavicle -9.74045e-015 -2.62396e-014
lhumerus -34.0795 2.79921 86.6513
lradius 54.8467
lwrist 1.31028
lhand -16.8572 26.1346
lfingers 7.12502
lthumb 9.37309 55.9062
rfemur -24.5598 5.11312 22.758
rtibia 32.4053
rfoot -15.3189 -6.32041
rtoes 5.03572
lfemur -25.9324 -0.159063 -21.5032
ltibia 33.097
lfoot -16.6299 2.93501
ltoes 2.00766
67
root 1.02934 17.5146 -15.3028 12.2688 -3.42514 -0.549142
lowerback 13.0111 0.0970329 -1.44805
upperback 1.15133 0.0948562 2.74346
thorax -6.0962 0.117944 3.70362
lowerneck -16.4835 -3.21489 -9.2997
upperneck 25.8981 -3.18421 4.61546
head 11.389 -1.78392 2.80783
rclavicle 1.17283e-014 -3.26007e-014
rhumerus -33.2687 -0.563852 -83.6734
rradius 58.5882
rwrist -2.68185
rhand -10.4647 16.6621
rfingers 7.12502
rthumb 15.5361 -12.7338
lclavicle 1.17283e-014 -3.26007e-014
lhumerus -33.927 2.67916 86.7528
lradius 55.4518
lwrist 1.50476
lhand -17.2866 25.0811
lfingers 7.12502
lthumb 8.9588 54.8709
rfemur -25.4744 4.95183 22.6622
rtibia 33.1326
rfoot -15.5494 -6.42563
rtoes 4.49354
lfemur -26.8048 -0.0906425 -21.6113
ltibia 33.7076
lfoot -16.7232 2.70401
ltoes 2.57832
68
root 1.03147 17.4942 -15.3231 12.7478 -3.35801 -0.615624
lowerback 13.1996 0.138929 -1.31708
upperback 1.19089 0.166418 2.70947
thorax -6.1641 0.149603 3.58156
lowerneck -16.5988 -3.19802 -9.33842
upperneck 25.7087 -3.17057 4.75446
head 11.341 -1.75951 2.86445
rclavicle -8.15017e-015 -2.3059e-014
rhumerus -33.0846 -0.590084 -83.7892
rradius 59.1923
rwrist -2.52595
rhand -11.0277 17.2148
rfingers 7.12502
rthumb 14.9938 -12.2224
lclavicle -8.15017e-015 -2.3059e-014
lhumerus -33.608 2.38772 86.7308
lradius 55.9007
lwrist 1.227
lhand -17.8293 24.7726
lfingers 7.12502
lthumb 8.43511 54.5842
rfemur -26.4699 4.82885 22.7385
rtibia 33.8881
rfoot -15.8473 -6.53801
rtoes 3.5939
lfemur -27.7717 0.000877463 -21.5412
ltibia 34.3305
lfoot -16.8987 2.49849
ltoes 3.08001
69
root 1.03507 17.4715 -15.345 13.1538 -3.28503 -0.590471
lowerback 13.5826 0.174869 -1.22168
upperback 1.21994 0.219956 2.59127
thorax -6.34931 0.173851 3.39529
lowerneck -16.9358 -3.1231 -9.21774
upperneck 25.6721 -3.09151 4.85417
head 11.3852 -1.69486 2.89103
rclavicle 1.98785e-015 3.97569e-016
rhumerus -32.8358 -0.561703 -84.0096
rradius 59.9786
rwrist -2.83938
rhand -10.9741 17.0832
rfingers 7.12502
rthumb 15.0454 -12.3501
lclavicle 1.98785e-015 3.97569e-016
lhumerus -33.3827 1.91939 86.6532
lradius 56.3775
lwrist 1.02022
lhand -17.9793 25.8656
lfingers 7.12502
lthumb 8.29034 55.6829
rfemur -27.425 4.72138 22.7125
rtibia 34.6744
rfoot -16.0846 -6.66371
rtoes 3.18498
lfemur -28.6684 0.0383572 -21.5721
ltibia 34.9586
lfoot -17.1109 2.39321
ltoes 3.03428
70
root 1.04062 17.4483 -15.3692 13.5501 -3.16047 -0.518209
lowerback 14.0894 0.128078 -1.20434
upperback 1.13555 0.157176 2.51575
thorax -6.71686 0.147554 3.3237
lowerneck -17.0239 -3.03735 -9.10017
upperneck 25.5408 -2.99442 4.86235
head 11.3417 -1.63548 2.88603
rclavicle -3.57812e-015 8.34896e-015
rhumerus -32.7705 -0.218588 -84.2159
rradius 60.7242
rwrist -3.16725
rhand -10.7511 16.9897
rfingers 7.12502
rthumb 15.2603 -12.4274
lclavicle -3.57812e-015 8.34896e-015
lhumerus -33.4784 1.63088 86.5828
lradius 57.0058
lwrist 1.20209
lhand -17.9648 26.9241
lfingers 7.12502
lthumb 8.30434 56.7408
rfemur -28.3807 4.56583 22.6314
rtibia 35.4969
rfoot -16.3811 -6.78175
rtoes 2.75254
lfemur -29.5731 -0.0332416 -21.6559
ltibia 35.5971
lfoot -17.2362 2.38084
ltoes 3.24926
